/* XPM */
static const char *collectible[] = {
/* columns rows colors chars-per-pixel */
"64 64 5 1 ",
"  c #231C19",
". c #14462D",
"X c #0A7030",
"o c #03991F",
"O c None",
/* pixels */
"OOOOOOOOOOOOOOOOOOOOOOOOOOOOOOOOOOOOOOOOOOOOOOOOOOOOOOOOOOOOOOOO",
"OOOOOOOOOOOOOOOOOOOOOOOOOOOOOOOOOOOOOOOOOOOOOOOOOOOOOOOOOOOOOOOO",
"OOOOOOOOOOOOOOOOOOOOOOOOOOOOOOOOOOOOOOOOOOOOOOOOOOOOOOOOOOOOOOOO",
"OOOOOOOOOOOOOOOOOOOOOOOOOOOOOOOOOOOOOOOOOOOOOOOOOOOOOOOOOOOOOOOO",
"OOOOOOOOOOOOOOOOOOOOOOOOOOOOOOOOOOOOOOOOOOOOOOOOOOOOOOOOOOOOOOOO",
"OOOOOOOOOOOOOOOOOOOOOOOOOOOOOOOOOOOOOOOOOOOOOOOOOOOOOOOOOOOOOOOO",
"OOOOOOOOOOOOOOOOOOOOOOOOOOOOOOOOOOOOOOOOOOOOOOOOOOOOOOOOOOOOOOOO",
"OOOOOOOOOOOOOOOOOOOOOOOOOOOOOOOOOOOOOOOOOOOOOOOOOOOOOOOOOOOOOOOO",
"OOOOOOOOOOOOOOOOOOOOOOOO                OOOOOOOOOOOOOOOOOOOOOOOO",
"OOOOOOOOOOOOOOOOOOOOOOOO                OOOOOOOOOOOOOOOOOOOOOOOO",
"OOOOOOOOOOOOOOOOOOOOOOOO                OOOOOOOOOOOOOOOOOOOOOOOO",
"OOOOOOOOOOOOOOOOOOOOOOOO                OOOOOOOOOOOOOOOOOOOOOOOO",
"OOOOOOOOOOOOOOOOOOOO    oooooooooooooooo    OOOOOOOOOOOOOOOOOOOO",
"OOOOOOOOOOOOOOOOOOOO    oooooooooooooooo    OOOOOOOOOOOOOOOOOOOO",
"OOOOOOOOOOOOOOOOOOOO    oooooooooooooooo    OOOOOOOOOOOOOOOOOOOO",
"OOOOOOOOOOOOOOOOOOOO    oooooooooooooooo    OOOOOOOOOOOOOOOOOOOO",
"OOOOOOOOOOOOOOOOOOOOOOOO    ooooXXXX    OOOOOOOOOOOOOOOOOOOOOOOO",
"OOOOOOOOOOOOOOOOOOOOOOOO    ooooXXXX    OOOOOOOOOOOOOOOOOOOOOOOO",
"OOOOOOOOOOOOOOOOOOOOOOOO    ooooXXXX    OOOOOOOOOOOOOOOOOOOOOOOO",
"OOOOOOOOOOOOOOOOOOOOOOOO    ooooXXXX    OOOOOOOOOOOOOOOOOOOOOOOO",
"OOOOOOOOOOOOOOOOOOOOOOOO    ooooXXXX    OOOOOOOOOOOOOOOOOOOOOOOO",
"OOOOOOOOOOOOOOOOOOOOOOOO    ooooXXXX    OOOOOOOOOOOOOOOOOOOOOOOO",
"OOOOOOOOOOOOOOOOOOOOOOOO    ooooXXXX    OOOOOOOOOOOOOOOOOOOOOOOO",
"OOOOOOOOOOOOOOOOOOOOOOOO    ooooXXXX    OOOOOOOOOOOOOOOOOOOOOOOO",
"OOOOOOOOOOOOOOOOOOOOOOOO    ooooXXXX    OOOOOOOOOOOOOOOOOOOOOOOO",
"OOOOOOOOOOOOOOOOOOOOOOOO    ooooXXXX    OOOOOOOOOOOOOOOOOOOOOOOO",
"OOOOOOOOOOOOOOOOOOOOOOOO    ooooXXXX    OOOOOOOOOOOOOOOOOOOOOOOO",
"OOOOOOOOOOOOOOOOOOOOOOOO    ooooXXXX    OOOOOOOOOOOOOOOOOOOOOOOO",
"OOOOOOOOOOOOOOOOOOOO    ooooXXXXXXXXoooo    OOOOOOOOOOOOOOOOOOOO",
"OOOOOOOOOOOOOOOOOOOO    ooooXXXXXXXXoooo    OOOOOOOOOOOOOOOOOOOO",
"OOOOOOOOOOOOOOOOOOOO    ooooXXXXXXXXoooo    OOOOOOOOOOOOOOOOOOOO",
"OOOOOOOOOOOOOOOOOOOO    ooooXXXXXXXXoooo    OOOOOOOOOOOOOOOOOOOO",
"OOOOOOOOOOOOOOOO    ooooooooXXXXXXXXXXXXoooo    OOOOOOOOOOOOOOOO",
"OOOOOOOOOOOOOOOO    ooooooooXXXXXXXXXXXXoooo    OOOOOOOOOOOOOOOO",
"OOOOOOOOOOOOOOOO    ooooooooXXXXXXXXXXXXoooo    OOOOOOOOOOOOOOOO",
"OOOOOOOOOOOOOOOO    ooooooooXXXXXXXXXXXXoooo    OOOOOOOOOOOOOOOO",
"OOOOOOOOOOOOOOOO    ooooXXXXXXXXXXXXXXXXoooo    OOOOOOOOOOOOOOOO",
"OOOOOOOOOOOOOOOO    ooooXXXXXXXXXXXXXXXXoooo    OOOOOOOOOOOOOOOO",
"OOOOOOOOOOOOOOOO    ooooXXXXXXXXXXXXXXXXoooo    OOOOOOOOOOOOOOOO",
"OOOOOOOOOOOOOOOO    ooooXXXXXXXXXXXXXXXXoooo    OOOOOOOOOOOOOOOO",
"OOOOOOOOOOOOOOOO    ooooXXXXXXXXXXXXXXXXoooo    OOOOOOOOOOOOOOOO",
"OOOOOOOOOOOOOOOO    ooooXXXXXXXXXXXXXXXXoooo    OOOOOOOOOOOOOOOO",
"OOOOOOOOOOOOOOOO    ooooXXXXXXXXXXXXXXXXoooo    OOOOOOOOOOOOOOOO",
"OOOOOOOOOOOOOOOO    ooooXXXXXXXXXXXXXXXXoooo    OOOOOOOOOOOOOOOO",
"OOOOOOOOOOOOOOOO    ooooXXXXXXXXXXXXXXXXoooo    OOOOOOOOOOOOOOOO",
"OOOOOOOOOOOOOOOO    ooooXXXXXXXXXXXXXXXXoooo    OOOOOOOOOOOOOOOO",
"OOOOOOOOOOOOOOOO    ooooXXXXXXXXXXXXXXXXoooo    OOOOOOOOOOOOOOOO",
"OOOOOOOOOOOOOOOO    ooooXXXXXXXXXXXXXXXXoooo    OOOOOOOOOOOOOOOO",
"OOOOOOOOOOOOOOOO    ....XXXXXXXXXXXXXXXX....    OOOOOOOOOOOOOOOO",
"OOOOOOOOOOOOOOOO    ....XXXXXXXXXXXXXXXX....    OOOOOOOOOOOOOOOO",
"OOOOOOOOOOOOOOOO    ....XXXXXXXXXXXXXXXX....    OOOOOOOOOOOOOOOO",
"OOOOOOOOOOOOOOOO    ....XXXXXXXXXXXXXXXX....    OOOOOOOOOOOOOOOO",
"OOOOOOOOOOOOOOOO    ....XXXXXXXXXXXX........    OOOOOOOOOOOOOOOO",
"OOOOOOOOOOOOOOOO    ....XXXXXXXXXXXX........    OOOOOOOOOOOOOOOO",
"OOOOOOOOOOOOOOOO    ....XXXXXXXXXXXX........    OOOOOOOOOOOOOOOO",
"OOOOOOOOOOOOOOOO    ....XXXXXXXXXXXX........    OOOOOOOOOOOOOOOO",
"OOOOOOOOOOOOOOOO    ........................    OOOOOOOOOOOOOOOO",
"OOOOOOOOOOOOOOOO    ........................    OOOOOOOOOOOOOOOO",
"OOOOOOOOOOOOOOOO    ........................    OOOOOOOOOOOOOOOO",
"OOOOOOOOOOOOOOOO    ........................    OOOOOOOOOOOOOOOO",
"OOOOOOOOOOOOOOOOOOOO                        OOOOOOOOOOOOOOOOOOOO",
"OOOOOOOOOOOOOOOOOOOO                        OOOOOOOOOOOOOOOOOOOO",
"OOOOOOOOOOOOOOOOOOOO                        OOOOOOOOOOOOOOOOOOOO",
"OOOOOOOOOOOOOOOOOOOO                        OOOOOOOOOOOOOOOOOOOO"
};
