/* XPM */
static const char *collectible[] = {
/* columns rows colors chars-per-pixel */
"64 64 8 1 ",
"  c #231C19",
". c #14462D",
"X c #0A7030",
"o c #997D57",
"O c #03991F",
"+ c #C3AA83",
"@ c #E2CFA4",
"# c None",
/* pixels */
"########                                                ########",
"########                                                ########",
"########                                                ########",
"########                                                ########",
"####    @@@@@@@@@@@@@@@@@@@@@@@@@@@@@@@@@@@@@@@@@@@@@@@@    ####",
"####    @@@@@@@@@@@@@@@@                @@@@@@@@@@@@@@@@    ####",
"####    @@@@@@@@@@@@@@@@                @@@@@@@@@@@@@@@@    ####",
"####    @@@@@@@@@@@@@@@@                @@@@@@@@@@@@@@@@    ####",
"    @@@@@@@@@@@@++++@@@@                ++++++++@@@@@@@@@@@@    ",
"    @@@@@@@@@@@@++++    OOOOOOOOOOOOOOOO    ++++@@@@@@@@@@@@    ",
"    @@@@@@@@@@@@++++    OOOOOOOOOOOOOOOO    ++++@@@@@@@@@@@@    ",
"    @@@@@@@@@@@@++++    OOOOOOOOOOOOOOOO    ++++@@@@@@@@@@@@    ",
"    @@@@@@@@++++++++    OOOOOOOOOOOOOOOO    ++++++++@@@@@@@@    ",
"    @@@@@@@@++++++++@@@@    OOOOXXXX    ++++++++++++@@@@@@@@    ",
"    @@@@@@@@++++++++@@@@    OOOOXXXX    ++++++++++++@@@@@@@@    ",
"    @@@@@@@@++++++++@@@@    OOOOXXXX    ++++++++++++@@@@@@@@    ",
"    @@@@++++++++++++@@@@    OOOOXXXX    @@@@++++++++++++@@@@    ",
"    @@@@++++++++++++@@@@    OOOOXXXX    @@@@++++++++++++@@@@    ",
"    @@@@++++++++++++@@@@    OOOOXXXX    @@@@++++++++++++@@@@    ",
"    @@@@++++++++++++@@@@    OOOOXXXX    @@@@++++++++++++@@@@    ",
"    @@@@++++@@@@++++++++    OOOOXXXX    @@@@++++++++++++@@@@    ",
"    @@@@++++@@@@++++++++    OOOOXXXX    @@@@++++++++++++@@@@    ",
"    @@@@++++@@@@++++++++    OOOOXXXX    @@@@++++++++++++@@@@    ",
"    @@@@++++@@@@++++++++    OOOOXXXX    @@@@++++++++++++@@@@    ",
"    @@@@++++++++++++++++    OOOOXXXX    ++++++++++++++++@@@@    ",
"    @@@@++++++++++++    OOOOXXXXXXXXOOOO    ++++++++++++@@@@    ",
"    @@@@++++++++++++    OOOOXXXXXXXXOOOO    ++++++++++++@@@@    ",
"    @@@@++++++++++++    OOOOXXXXXXXXOOOO    ++++++++++++@@@@    ",
"    @@@@++++++++oooo    OOOOXXXXXXXXOOOO    ++++@@@@++++@@@@    ",
"    @@@@++++++++    OOOOOOOOXXXXXXXXXXXXOOOO    @@@@++++@@@@    ",
"    @@@@++++++++    OOOOOOOOXXXXXXXXXXXXOOOO    @@@@++++@@@@    ",
"    @@@@++++++++    OOOOOOOOXXXXXXXXXXXXOOOO    @@@@++++@@@@    ",
"    oooo++++++++    OOOOOOOOXXXXXXXXXXXXOOOO    ++++++++oooo    ",
"    oooo++++++++    OOOOXXXXXXXXXXXXXXXXOOOO    ++++++++oooo    ",
"    oooo++++++++    OOOOXXXXXXXXXXXXXXXXOOOO    ++++++++oooo    ",
"    oooo++++++++    OOOOXXXXXXXXXXXXXXXXOOOO    ++++++++oooo    ",
"    oooo++++++++    OOOOXXXXXXXXXXXXXXXXOOOO    ++++++++oooo    ",
"    oooo++++++++    OOOOXXXXXXXXXXXXXXXXOOOO    ++++++++oooo    ",
"    oooo++++++++    OOOOXXXXXXXXXXXXXXXXOOOO    ++++++++oooo    ",
"    oooo++++++++    OOOOXXXXXXXXXXXXXXXXOOOO    ++++++++oooo    ",
"    oooo++++oooo    OOOOXXXXXXXXXXXXXXXXOOOO    ++++oooooooo    ",
"    oooo++++oooo    OOOOXXXXXXXXXXXXXXXXOOOO    ++++oooooooo    ",
"    oooo++++oooo    OOOOXXXXXXXXXXXXXXXXOOOO    ++++oooooooo    ",
"    oooo++++oooo    OOOOXXXXXXXXXXXXXXXXOOOO    ++++oooooooo    ",
"    oooo++++++++    OOOOXXXXXXXXXXXXXXXXOOOO    ++++++++oooo    ",
"    oooo++++++++    ....XXXXXXXXXXXXXXXX....    ++++++++oooo    ",
"    oooo++++++++    ....XXXXXXXXXXXXXXXX....    ++++++++oooo    ",
"    oooo++++++++    ....XXXXXXXXXXXXXXXX....    ++++++++oooo    ",
"    oooo++++++++    ....XXXXXXXXXXXXXXXX....    oooo++++oooo    ",
"    oooo++++++++    ....XXXXXXXXXXXX........    oooo++++oooo    ",
"    oooo++++++++    ....XXXXXXXXXXXX........    oooo++++oooo    ",
"    oooo++++++++    ....XXXXXXXXXXXX........    oooo++++oooo    ",
"    oooo++++++++    ....XXXXXXXXXXXX........    ++++++++oooo    ",
"    oooo++++++++    ........................    ++++++++oooo    ",
"    oooo++++++++    ........................    ++++++++oooo    ",
"    oooo++++++++    ........................    ++++++++oooo    ",
"####    oooooooo    ........................    oooooooo    ####",
"####    oooooooooooo                        oooooooooooo    ####",
"####    oooooooooooo                        oooooooooooo    ####",
"####    oooooooooooo                        oooooooooooo    ####",
"########                                                ########",
"########                                                ########",
"########                                                ########",
"########                                                ########"
};
