/* XPM */
static const char *collectible[] = {
/* columns rows colors chars-per-pixel */
"32 32 7 1 ",
"  c #231C19",
". c #14462D",
"X c #0A7030",
"o c #03991F",
"O c #4DBD27",
"+ c #95D836",
"@ c None",
/* pixels */
"@@@@@@@@@@@@@@@@@@@@      @@@@@@",
"@@@@@@@@@@@@@@@@@@@@      @@@@@@",
"@@@@@@@@@@@@    @@  oooo  @@@@@@",
"@@@@@@@@@@@@    @@  oooo  @@@@@@",
"@@@@@@@@@@  oooo  ooXXXX  @@@@@@",
"@@@@@@@@@@  oooo  ooXXXX  @@@@@@",
"@@@@@@@@@@  oo..  ....  @@@@@@@@",
"@@@@@@@@@@  oo..  ....  @@@@@@@@",
"@@@@@@@@@@@@          @@@@@@@@@@",
"@@@@@@@@@@@@          @@@@@@@@@@",
"@@@@@@@@@@@@@@    @@@@@@@@@@@@@@",
"@@@@@@@@@@@@@@    @@@@@@@@@@@@@@",
"@@@@@@@@@@@@  XXXX  @@@@@@@@@@@@",
"@@@@@@@@@@@@  XXXX  @@@@@@@@@@@@",
"@@@@@@@@@@@@  ++XX  @@@@@@@@@@@@",
"@@@@@@@@@@@@  ++XX  @@@@@@@@@@@@",
"@@@@@@@@@@  ++OOOO++  @@@@@@@@@@",
"@@@@@@@@@@  ++OOOO++  @@@@@@@@@@",
"@@@@@@@@@@  ++++OO++  @@@@@@@@@@",
"@@@@@@@@@@  ++++OO++  @@@@@@@@@@",
"@@@@@@@@  ++OOOOOOOO++  @@@@@@@@",
"@@@@@@@@  ++OOOOOOOO++  @@@@@@@@",
"@@@@@@@@  ++OOooooOO++  @@@@@@@@",
"@@@@@@@@  ++OOooooOO++  @@@@@@@@",
"@@@@@@@@  ooOOooooOOoo  @@@@@@@@",
"@@@@@@@@  ooOOooooOOoo  @@@@@@@@",
"@@@@@@@@  ooooOOOOoooo  @@@@@@@@",
"@@@@@@@@  ooooOOOOoooo  @@@@@@@@",
"@@@@@@@@@@  oooooooo  @@@@@@@@@@",
"@@@@@@@@@@  oooooooo  @@@@@@@@@@",
"@@@@@@@@@@@@        @@@@@@@@@@@@",
"@@@@@@@@@@@@        @@@@@@@@@@@@"
};
