/* XPM */
static const char *exit[] = {
/* columns rows colors chars-per-pixel */
"32 32 5 1 ",
"  c #231C19",
". c #67332D",
"X c #B66B3A",
"o c #D89E58",
"O c None",
/* pixels */
"OOOOOOOOOOOOOOOOOOOOOOOOOOOOOOOO",
"OOOOOOOOOOOOOOOOOOOOOOOOOOOOOOOO",
"OOOOOOOOOOOOOOOOOOOOOOOOOOOOOOOO",
"OOOOOOOOOOOOOOOOOOOOOOOOOOOOOOOO",
"OOOOOOOOOOOOOOOOOOOOOOOOOOOOOOOO",
"OOOOOOOOOOOOOOOOOOOOOOOOOOOOOOOO",
"OOOOOOOOOOOOOOOOOOOOOOOOOOOOOOOO",
"OOOOOOOOOOOOOOOOOOOOOOOOOOOOOOOO",
"OOOO    OOOOOOOOOOOOOOOO    OOOO",
"OOOO    OOOOOOOOOOOOOOOO    OOOO",
"OO  oooo  OOOOOOOOOOOO  oooo  OO",
"OO  oooo  OOOOOOOOOOOO  oooo  OO",
"OO  ooXX  OOOOOOOOOOOO  XXoo  OO",
"OO  ooXX  OOOOOOOOOOOO  XXoo  OO",
"OO  ooXX                XXoo  OO",
"OO  ooXX                XXoo  OO",
"OO  ooXX  ooooooooXX..  XXoo  OO",
"OO  ooXX  ooooooooXX..  XXoo  OO",
"OO  ooXX                XXoo  OO",
"OO  ooXX                XXoo  OO",
"OO  ooXX  OOOOOOOOOOOO  XXoo  OO",
"OO  ooXX  OOOOOOOOOOOO  XXoo  OO",
"OO  ..XX                XX..  OO",
"OO  ..XX                XX..  OO",
"OO  ..XX  XXXXXXXX....  XX..  OO",
"OO  ..XX  XXXXXXXX....  XX..  OO",
"OO  ..XX                XX..  OO",
"OO  ..XX                XX..  OO",
"OO  ....  OOOOOOOOOOOO  ....  OO",
"OO  ....  OOOOOOOOOOOO  ....  OO",
"OOOO    OOOOOOOOOOOOOOOO    OOOO",
"OOOO    OOOOOOOOOOOOOOOO    OOOO"
};
