/* XPM */
static const char *exit[] = {
/* columns rows colors chars-per-pixel */
"64 64 8 1 ",
"  c #231C19",
". c #67332D",
"X c #B66B3A",
"o c #997D57",
"O c #D89E58",
"+ c #C3AA83",
"@ c #E2CFA4",
"# c None",
/* pixels */
"########                                                ########",
"########                                                ########",
"########                                                ########",
"########                                                ########",
"####    @@@@@@@@@@@@@@@@@@@@@@@@@@@@@@@@@@@@@@@@@@@@@@@@    ####",
"####    @@@@@@@@@@@@@@@@@@@@@@@@@@@@@@@@@@@@@@@@@@@@@@@@    ####",
"####    @@@@@@@@@@@@@@@@@@@@@@@@@@@@@@@@@@@@@@@@@@@@@@@@    ####",
"####    @@@@@@@@@@@@@@@@@@@@@@@@@@@@@@@@@@@@@@@@@@@@@@@@    ####",
"    @@@@@@@@@@@@++++@@@@@@@@@@@@++++++++++++++++@@@@@@@@@@@@    ",
"    @@@@@@@@@@@@++++@@@@@@@@@@@@++++++++++++++++@@@@@@@@@@@@    ",
"    @@@@@@@@@@@@++++@@@@@@@@@@@@++++++++++++++++@@@@@@@@@@@@    ",
"    @@@@@@@@@@@@++++@@@@@@@@@@@@++++++++++++++++@@@@@@@@@@@@    ",
"    @@@@@@@@++++++++@@@@@@@@@@@@++++++++++++++++++++@@@@@@@@    ",
"    @@@@@@@@++++++++@@@@@@@@@@@@++++++++++++++++++++@@@@@@@@    ",
"    @@@@@@@@++++++++@@@@@@@@@@@@++++++++++++++++++++@@@@@@@@    ",
"    @@@@@@@@++++++++@@@@@@@@@@@@++++++++++++++++++++@@@@@@@@    ",
"    @@@@        ++++@@@@@@@@@@@@++++@@@@@@@@++++        @@@@    ",
"    @@@@        ++++@@@@@@@@@@@@++++@@@@@@@@++++        @@@@    ",
"    @@@@        ++++@@@@@@@@@@@@++++@@@@@@@@++++        @@@@    ",
"    @@@@        ++++@@@@@@@@@@@@++++@@@@@@@@++++        @@@@    ",
"        OOOOOOOO    ++++++++++++++++@@@@@@@@    OOOOOOOO        ",
"        OOOOOOOO    ++++++++++++++++@@@@@@@@    OOOOOOOO        ",
"        OOOOOOOO    ++++++++++++++++@@@@@@@@    OOOOOOOO        ",
"        OOOOOOOO    ++++++++++++++++@@@@@@@@    OOOOOOOO        ",
"        OOOOXXXX    ++++++++++++++++++++++++    XXXXOOOO        ",
"        OOOOXXXX    ++++++++++++++++++++++++    XXXXOOOO        ",
"        OOOOXXXX    ++++++++++++++++++++++++    XXXXOOOO        ",
"        OOOOXXXX    ++++++++++++++++++++++++    XXXXOOOO        ",
"        OOOOXXXX                                XXXXOOOO        ",
"        OOOOXXXX                                XXXXOOOO        ",
"        OOOOXXXX                                XXXXOOOO        ",
"        OOOOXXXX                                XXXXOOOO        ",
"        OOOOXXXX    OOOOOOOOOOOOOOOOXXXX....    XXXXOOOO        ",
"        OOOOXXXX    OOOOOOOOOOOOOOOOXXXX....    XXXXOOOO        ",
"        OOOOXXXX    OOOOOOOOOOOOOOOOXXXX....    XXXXOOOO        ",
"        OOOOXXXX    OOOOOOOOOOOOOOOOXXXX....    XXXXOOOO        ",
"        OOOOXXXX                                XXXXOOOO        ",
"        OOOOXXXX                                XXXXOOOO        ",
"        OOOOXXXX                                XXXXOOOO        ",
"        OOOOXXXX                                XXXXOOOO        ",
"        OOOOXXXX    ++++++++++++++++++++++++    XXXXOOOO        ",
"        OOOOXXXX    ++++++++++++++++++++++++    XXXXOOOO        ",
"        OOOOXXXX    ++++++++++++++++++++++++    XXXXOOOO        ",
"        OOOOXXXX    ++++++++++++++++++++++++    XXXXOOOO        ",
"        ....XXXX                                XXXX....        ",
"        ....XXXX                                XXXX....        ",
"        ....XXXX                                XXXX....        ",
"        ....XXXX                                XXXX....        ",
"        ....XXXX    XXXXXXXXXXXXXXXX........    XXXX....        ",
"        ....XXXX    XXXXXXXXXXXXXXXX........    XXXX....        ",
"        ....XXXX    XXXXXXXXXXXXXXXX........    XXXX....        ",
"        ....XXXX    XXXXXXXXXXXXXXXX........    XXXX....        ",
"        ....XXXX                                XXXX....        ",
"        ....XXXX                                XXXX....        ",
"        ....XXXX                                XXXX....        ",
"        ....XXXX                                XXXX....        ",
"####    ........    oooooooooooooooooooooooo    ........    ####",
"####    ........    oooooooooooooooooooooooo    ........    ####",
"####    ........    oooooooooooooooooooooooo    ........    ####",
"####    ........    oooooooooooooooooooooooo    ........    ####",
"########                                                ########",
"########                                                ########",
"########                                                ########",
"########                                                ########"
};
