/* XPM */
static const char *floor[] = {
/* columns rows colors chars-per-pixel */
"64 64 5 1 ",
"  c #231C19",
". c #997D57",
"X c #C3AA83",
"o c #E2CFA4",
"O c None",
/* pixels */
"OOOOOOOO                                                OOOOOOOO",
"OOOOOOOO                                                OOOOOOOO",
"OOOOOOOO                                                OOOOOOOO",
"OOOOOOOO                                                OOOOOOOO",
"OOOO    oooooooooooooooooooooooooooooooooooooooooooooooo    OOOO",
"OOOO    oooooooooooooooooooooooooooooooooooooooooooooooo    OOOO",
"OOOO    oooooooooooooooooooooooooooooooooooooooooooooooo    OOOO",
"OOOO    oooooooooooooooooooooooooooooooooooooooooooooooo    OOOO",
"    ooooooooooooXXXXooooooooooooXXXXXXXXXXXXXXXXoooooooooooo    ",
"    ooooooooooooXXXXooooooooooooXXXXXXXXXXXXXXXXoooooooooooo    ",
"    ooooooooooooXXXXooooooooooooXXXXXXXXXXXXXXXXoooooooooooo    ",
"    ooooooooooooXXXXooooooooooooXXXXXXXXXXXXXXXXoooooooooooo    ",
"    ooooooooXXXXXXXXooooooooooooXXXXXXXXXXXXXXXXXXXXoooooooo    ",
"    ooooooooXXXXXXXXooooooooooooXXXXXXXXXXXXXXXXXXXXoooooooo    ",
"    ooooooooXXXXXXXXooooooooooooXXXXXXXXXXXXXXXXXXXXoooooooo    ",
"    ooooooooXXXXXXXXooooooooooooXXXXXXXXXXXXXXXXXXXXoooooooo    ",
"    ooooXXXXXXXXXXXXooooooooooooXXXXooooooooXXXXXXXXXXXXoooo    ",
"    ooooXXXXXXXXXXXXooooooooooooXXXXooooooooXXXXXXXXXXXXoooo    ",
"    ooooXXXXXXXXXXXXooooooooooooXXXXooooooooXXXXXXXXXXXXoooo    ",
"    ooooXXXXXXXXXXXXooooooooooooXXXXooooooooXXXXXXXXXXXXoooo    ",
"    ooooXXXXooooXXXXXXXXXXXXXXXXXXXXooooooooXXXXXXXXXXXXoooo    ",
"    ooooXXXXooooXXXXXXXXXXXXXXXXXXXXooooooooXXXXXXXXXXXXoooo    ",
"    ooooXXXXooooXXXXXXXXXXXXXXXXXXXXooooooooXXXXXXXXXXXXoooo    ",
"    ooooXXXXooooXXXXXXXXXXXXXXXXXXXXooooooooXXXXXXXXXXXXoooo    ",
"    ooooXXXXXXXXXXXXXXXXXXXXXXXXXXXXXXXXXXXXXXXXXXXXXXXXoooo    ",
"    ooooXXXXXXXXXXXXXXXXXXXXXXXXXXXXXXXXXXXXXXXXXXXXXXXXoooo    ",
"    ooooXXXXXXXXXXXXXXXXXXXXXXXXXXXXXXXXXXXXXXXXXXXXXXXXoooo    ",
"    ooooXXXXXXXXXXXXXXXXXXXXXXXXXXXXXXXXXXXXXXXXXXXXXXXXoooo    ",
"    ooooXXXXXXXX........XXXXXXXXXXXXXXXXXXXXXXXXooooXXXXoooo    ",
"    ooooXXXXXXXX........XXXXXXXXXXXXXXXXXXXXXXXXooooXXXXoooo    ",
"    ooooXXXXXXXX........XXXXXXXXXXXXXXXXXXXXXXXXooooXXXXoooo    ",
"    ooooXXXXXXXX........XXXXXXXXXXXXXXXXXXXXXXXXooooXXXXoooo    ",
"    ....XXXXXXXX........XXXXooooooooXXXXXXXXXXXXXXXXXXXX....    ",
"    ....XXXXXXXX........XXXXooooooooXXXXXXXXXXXXXXXXXXXX....    ",
"    ....XXXXXXXX........XXXXooooooooXXXXXXXXXXXXXXXXXXXX....    ",
"    ....XXXXXXXX........XXXXooooooooXXXXXXXXXXXXXXXXXXXX....    ",
"    ....XXXXXXXXXXXXXXXXXXXXooooooooXXXXXXXXXXXXXXXXXXXX....    ",
"    ....XXXXXXXXXXXXXXXXXXXXooooooooXXXXXXXXXXXXXXXXXXXX....    ",
"    ....XXXXXXXXXXXXXXXXXXXXooooooooXXXXXXXXXXXXXXXXXXXX....    ",
"    ....XXXXXXXXXXXXXXXXXXXXooooooooXXXXXXXXXXXXXXXXXXXX....    ",
"    ....XXXX....XXXXXXXXXXXXXXXXXXXXXXXXXXXXXXXXXXXX........    ",
"    ....XXXX....XXXXXXXXXXXXXXXXXXXXXXXXXXXXXXXXXXXX........    ",
"    ....XXXX....XXXXXXXXXXXXXXXXXXXXXXXXXXXXXXXXXXXX........    ",
"    ....XXXX....XXXXXXXXXXXXXXXXXXXXXXXXXXXXXXXXXXXX........    ",
"    ....XXXXXXXXXXXXXXXXXXXXXXXXXXXX........XXXXXXXXXXXX....    ",
"    ....XXXXXXXXXXXXXXXXXXXXXXXXXXXX........XXXXXXXXXXXX....    ",
"    ....XXXXXXXXXXXXXXXXXXXXXXXXXXXX........XXXXXXXXXXXX....    ",
"    ....XXXXXXXXXXXXXXXXXXXXXXXXXXXX........XXXXXXXXXXXX....    ",
"    ....XXXXXXXX........XXXXXXXXXXXX........XXXX....XXXX....    ",
"    ....XXXXXXXX........XXXXXXXXXXXX........XXXX....XXXX....    ",
"    ....XXXXXXXX........XXXXXXXXXXXX........XXXX....XXXX....    ",
"    ....XXXXXXXX........XXXXXXXXXXXX........XXXX....XXXX....    ",
"    ....XXXXXXXX........XXXXXXXXXXXXXXXXXXXXXXXXXXXXXXXX....    ",
"    ....XXXXXXXX........XXXXXXXXXXXXXXXXXXXXXXXXXXXXXXXX....    ",
"    ....XXXXXXXX........XXXXXXXXXXXXXXXXXXXXXXXXXXXXXXXX....    ",
"    ....XXXXXXXX........XXXXXXXXXXXXXXXXXXXXXXXXXXXXXXXX....    ",
"OOOO    ................................................    OOOO",
"OOOO    ................................................    OOOO",
"OOOO    ................................................    OOOO",
"OOOO    ................................................    OOOO",
"OOOOOOOO                                                OOOOOOOO",
"OOOOOOOO                                                OOOOOOOO",
"OOOOOOOO                                                OOOOOOOO",
"OOOOOOOO                                                OOOOOOOO"
};
