/* XPM */
static const char *floor[] = {
/* columns rows colors chars-per-pixel */
"32 32 5 1 ",
"  c #242B33",
". c #3D4857",
"X c #636B85",
"o c #AEB4CE",
"O c None",
/* pixels */
"OOOO                        OOOO",
"OOOO                        OOOO",
"OO  oooooooooooooooooooooooo  OO",
"OO  oooooooooooooooooooooooo  OO",
"  ooooooXXooooooXXXXXXXXoooooo  ",
"  ooooooXXooooooXXXXXXXXoooooo  ",
"  ooooXXXXooooooXXXXXXXXXXoooo  ",
"  ooooXXXXooooooXXXXXXXXXXoooo  ",
"  ooXXXXXXooooooXXooooXXXXXXoo  ",
"  ooXXXXXXooooooXXooooXXXXXXoo  ",
"  ooXXooXXXXXXXXXXooooXXXXXXoo  ",
"  ooXXooXXXXXXXXXXooooXXXXXXoo  ",
"  ooXXXXXXXXXXXXXXXXXXXXXXXXoo  ",
"  ooXXXXXXXXXXXXXXXXXXXXXXXXoo  ",
"  ooXXXX....XXXXXXXXXXXXooXXoo  ",
"  ooXXXX....XXXXXXXXXXXXooXXoo  ",
"  ..XXXX....XXooooXXXXXXXXXX..  ",
"  ..XXXX....XXooooXXXXXXXXXX..  ",
"  ..XXXXXXXXXXooooXXXXXXXXXX..  ",
"  ..XXXXXXXXXXooooXXXXXXXXXX..  ",
"  ..XX..XXXXXXXXXXXXXXXXXX....  ",
"  ..XX..XXXXXXXXXXXXXXXXXX....  ",
"  ..XXXXXXXXXXXXXX....XXXXXX..  ",
"  ..XXXXXXXXXXXXXX....XXXXXX..  ",
"  ..XXXX....XXXXXX....XX..XX..  ",
"  ..XXXX....XXXXXX....XX..XX..  ",
"  ..XXXX....XXXXXXXXXXXXXXXX..  ",
"  ..XXXX....XXXXXXXXXXXXXXXX..  ",
"OO  ........................  OO",
"OO  ........................  OO",
"OOOO                        OOOO",
"OOOO                        OOOO"
};
