/* XPM */
static const char *player[] = {
/* columns rows colors chars-per-pixel */
"64 64 12 1 ",
"  c black",
". c #231C19",
"X c #FF0041",
"o c #FB3567",
"O c #997D57",
"+ c #FFBE00",
"@ c #F6CD56",
"# c #C3AA83",
"$ c #FFDF82",
"% c #E2CFA4",
"& c white",
"* c None",
/* pixels */
"********....................                ............********",
"********....................                ............********",
"********....................                ............********",
"********....................                ............********",
"****....%%%%%%%%%%%%%%%%%%%%                %%%%%%%%%%%%....****",
"****....%%%%%%%%%%%%%%%%%%%%                %%%%%%%%%%%%....****",
"****....%%%%%%%%%%%%        ooooXXXX    %%%%%%%%            ****",
"****....%%%%%%%%%%%%        ooooXXXX    %%%%%%%%            ****",
"....%%%%%%%%%%%%####        ooooXXXX    ########            ....",
"....%%%%%%%%%%%%####        ooooXXXX    ########            ....",
"....%%%%                                        ooooXXXX    ....",
"....%%%%                                        ooooXXXX    ....",
"....%%%%                                        ooooXXXX    ....",
"....%%%%                                        ooooXXXX    ....",
"....        ooooooooooooooooooooooooooooooooooooXXXX    %%%%....",
"....        ooooooooooooooooooooooooooooooooooooXXXX    %%%%....",
"    ooooooooooXXXXXXXXXXXXXX&&&&        XXXX        ####%%%%....",
"    ooooooooooXXXXXXXXXXXXXX&&&&        XXXX        ####%%%%....",
"    ooooooooooXXXXXXXXXXXXXX&&&&        XXXX        ####%%%%....",
"    ooooooooooXXXXXXXXXXXXXX&&&&        XXXX        ####%%%%....",
"    ooooooooooXXXXXXXXXXXXXX&&&&        XXXX        ####%%%%....",
"    ooooooooooXXXXXXXXXXXXXX&&&&        XXXX        ####%%%%....",
"    ooooXXXXXXXXXXXXXXXX        ++++XXXXXXXX    ########%%%%....",
"    ooooXXXXXXXXXXXXXXXX        ++++XXXXXXXX    ########%%%%....",
"    ooooXXXXXXXXXXXXXXXX        ++++XXXXXXXX    ########%%%%....",
"    ooooXXXXXXXXXXXXXXXX        ++++XXXXXXXX    ########%%%%....",
"    XXXXXXXXXXXXXXXXXXXXXXXXXXXXXXXXXXXXXXXX    ########%%%%....",
"    XXXXXXXXXXXXXXXXXXXXXXXXXXXXXXXXXXXXXXXX    ########%%%%....",
"    XXXXXXXXXXXXXXXXXXXXXXXXXXXXXXXXXXXXXXXX    %%%%####%%%%....",
"    XXXXXXXXXXXXXXXXXXXXXXXXXXXXXXXXXXXXXXXX    %%%%####%%%%....",
"                XXXX        XXXX    XXXX    ####%%%%####%%%%....",
"                XXXX        XXXX    XXXX    ####%%%%####%%%%....",
"....    $$$$@@@@    @@@@@@@@    @@@@    ################OOOO....",
"....    $$$$@@@@    @@@@@@@@    @@@@    ################OOOO....",
"....    $$$$@@@@    @@@@@@@@    @@@@    ############    OOOO....",
"....    $$$$@@@@    @@@@@@@@    @@@@    ############    OOOO....",
"....    $$$$@@@@    @@@@@@@@    @@@@    ############    OOOO....",
"....    $$$$@@@@    @@@@@@@@    @@@@    ############    OOOO....",
"....    $$$$$$$$$$$$$$$$XXXX$$$$            ####    oooo    ....",
"....    $$$$$$$$$$$$$$$$XXXX$$$$            ####    oooo    ....",
"....    $$$$$$$$$$$$$$$$XXXX$$$$            ####    oooo    ....",
"....    $$$$$$$$$$$$$$$$XXXX$$$$            ####    oooo    ....",
"....OOOO            XXXX$$$$XXXX    &&&&oooo    ooooXXXX    ....",
"....OOOO            XXXX$$$$XXXX    &&&&oooo    ooooXXXX    ....",
"....OOOO            XXXX$$$$XXXX    &&&&oooo    ooooXXXX    ....",
"....OOOO            XXXX$$$$XXXX    &&&&oooo    ooooXXXX    ....",
"....    &&&&XXXX    $$$$$$$$$$$$    XXXX&&&&    XXXXXXXX    ....",
"....    &&&&XXXX    $$$$$$$$$$$$    XXXX&&&&    XXXXXXXX    ....",
"....    &&&&XXXX    XXXX$$$$XXXX    XXXX&&&&XXXXXXXX    OOOO....",
"....    &&&&XXXX    XXXX$$$$XXXX    XXXX&&&&XXXXXXXX    OOOO....",
"....    XXXX&&&&    XXXX$$$$XXXX            XXXXXXXX    OOOO....",
"....    XXXX&&&&    XXXX$$$$XXXX            XXXXXXXX    OOOO....",
"....    XXXX&&&&    XXXX$$$$XXXX            XXXXXXXX    OOOO....",
"....    XXXX&&&&    XXXX$$$$XXXX            XXXXXXXX    OOOO....",
"....OOOO                XXXX                            OOOO....",
"....OOOO                XXXX                            OOOO....",
"****....                XXXX                            ....****",
"****....                XXXX                            ....****",
"****    &&&&    XXXX            &&&&    &&&&    OOOOOOOO....****",
"****    &&&&    XXXX            &&&&    &&&&    OOOOOOOO....****",
"****    &&&&    XXXX            &&&&    &&&&    ........********",
"****    &&&&    XXXX            &&&&    &&&&    ........********",
"****                    ....                    ........********",
"****                    ....                    ........********"
};
