/* XPM */
static const char *player[] = {
/* columns rows colors chars-per-pixel */
"64 64 12 1 ",
"  c black",
". c #231C19",
"X c #14462D",
"o c #0A7030",
"O c #FF0041",
"+ c #FB3567",
"@ c #03991F",
"# c #FFBE00",
"$ c #F6CD56",
"% c #FFDF82",
"& c white",
"* c None",
/* pixels */
"********....................                ............********",
"********....................                ............********",
"********....................                ............********",
"********....................                ............********",
"****....@@@@@@@@@@@@@@@@@@@@                @@@@@@@@@@@@....****",
"****....@@@@@@@@@@@@@@@@@@@@                @@@@@@@@@@@@....****",
"****....@@@@@@@@@@@@        ++++OOOO    @@@@@@@@            ****",
"****....@@@@@@@@@@@@        ++++OOOO    @@@@@@@@            ****",
"....@@@@@@@@@@@@oooo        ++++OOOO    oooooooo            ....",
"....@@@@@@@@@@@@oooo        ++++OOOO    oooooooo            ....",
"....@@@@                                        ++++OOOO    ....",
"....@@@@                                        ++++OOOO    ....",
"....@@@@                                        ++++OOOO    ....",
"....@@@@                                        ++++OOOO    ....",
"....        ++++++++++++++++++++++++++++++++++++OOOO    @@@@....",
"....        ++++++++++++++++++++++++++++++++++++OOOO    @@@@....",
"    ++++++++++OOOOOOOOOOOOOO&&&&        OOOO        oooo@@@@....",
"    ++++++++++OOOOOOOOOOOOOO&&&&        OOOO        oooo@@@@....",
"    ++++++++++OOOOOOOOOOOOOO&&&&        OOOO        oooo@@@@....",
"    ++++++++++OOOOOOOOOOOOOO&&&&        OOOO        oooo@@@@....",
"    ++++++++++OOOOOOOOOOOOOO&&&&        OOOO        oooo@@@@....",
"    ++++++++++OOOOOOOOOOOOOO&&&&        OOOO        oooo@@@@....",
"    ++++OOOOOOOOOOOOOOOO        ####OOOOOOOO    oooooooo@@@@....",
"    ++++OOOOOOOOOOOOOOOO        ####OOOOOOOO    oooooooo@@@@....",
"    ++++OOOOOOOOOOOOOOOO        ####OOOOOOOO    oooooooo@@@@....",
"    ++++OOOOOOOOOOOOOOOO        ####OOOOOOOO    oooooooo@@@@....",
"    OOOOOOOOOOOOOOOOOOOOOOOOOOOOOOOOOOOOOOOO    oooooooo@@@@....",
"    OOOOOOOOOOOOOOOOOOOOOOOOOOOOOOOOOOOOOOOO    oooooooo@@@@....",
"    OOOOOOOOOOOOOOOOOOOOOOOOOOOOOOOOOOOOOOOO    @@@@oooo@@@@....",
"    OOOOOOOOOOOOOOOOOOOOOOOOOOOOOOOOOOOOOOOO    @@@@oooo@@@@....",
"                OOOO        OOOO    OOOO    oooo@@@@oooo@@@@....",
"                OOOO        OOOO    OOOO    oooo@@@@oooo@@@@....",
"....    %%%%$$$$    $$$$$$$$    $$$$    ooooooooooooooooXXXX....",
"....    %%%%$$$$    $$$$$$$$    $$$$    ooooooooooooooooXXXX....",
"....    %%%%$$$$    $$$$$$$$    $$$$    oooooooooooo    XXXX....",
"....    %%%%$$$$    $$$$$$$$    $$$$    oooooooooooo    XXXX....",
"....    %%%%$$$$    $$$$$$$$    $$$$    oooooooooooo    XXXX....",
"....    %%%%$$$$    $$$$$$$$    $$$$    oooooooooooo    XXXX....",
"....    %%%%%%%%%%%%%%%%OOOO%%%%            oooo    ++++    ....",
"....    %%%%%%%%%%%%%%%%OOOO%%%%            oooo    ++++    ....",
"....    %%%%%%%%%%%%%%%%OOOO%%%%            oooo    ++++    ....",
"....    %%%%%%%%%%%%%%%%OOOO%%%%            oooo    ++++    ....",
"....XXXX            OOOO%%%%OOOO    &&&&++++    ++++OOOO    ....",
"....XXXX            OOOO%%%%OOOO    &&&&++++    ++++OOOO    ....",
"....XXXX            OOOO%%%%OOOO    &&&&++++    ++++OOOO    ....",
"....XXXX            OOOO%%%%OOOO    &&&&++++    ++++OOOO    ....",
"....    &&&&OOOO    %%%%%%%%%%%%    OOOO&&&&    OOOOOOOO    ....",
"....    &&&&OOOO    %%%%%%%%%%%%    OOOO&&&&    OOOOOOOO    ....",
"....    &&&&OOOO    OOOO%%%%OOOO    OOOO&&&&OOOOOOOO    XXXX....",
"....    &&&&OOOO    OOOO%%%%OOOO    OOOO&&&&OOOOOOOO    XXXX....",
"....    OOOO&&&&    OOOO%%%%OOOO            OOOOOOOO    XXXX....",
"....    OOOO&&&&    OOOO%%%%OOOO            OOOOOOOO    XXXX....",
"....    OOOO&&&&    OOOO%%%%OOOO            OOOOOOOO    XXXX....",
"....    OOOO&&&&    OOOO%%%%OOOO            OOOOOOOO    XXXX....",
"....XXXX                OOOO                            XXXX....",
"....XXXX                OOOO                            XXXX....",
"****....                OOOO                            ....****",
"****....                OOOO                            ....****",
"****    &&&&    OOOO            &&&&    &&&&    XXXXXXXX....****",
"****    &&&&    OOOO            &&&&    &&&&    XXXXXXXX....****",
"****    &&&&    OOOO            &&&&    &&&&    ........********",
"****    &&&&    OOOO            &&&&    &&&&    ........********",
"****                    ....                    ........********",
"****                    ....                    ........********"
};
