/* XPM */
static const char *player[] = {
/* columns rows colors chars-per-pixel */
"32 32 8 1 ",
"  c black",
". c #FF0041",
"X c #FB3567",
"o c #FFBE00",
"O c #F6CD56",
"+ c #FFDF82",
"@ c white",
"# c None",
/* pixels */
"##############        ##########",
"##############        ##########",
"##############        ##########",
"##########    XX..  ####      ##",
"##########    XX..  ####      ##",
"####                    XX..  ##",
"####                    XX..  ##",
"##    XXXXXXXXXXXXXXXXXX..  ####",
"  XXXXX.......@@    ..    ######",
"  XXXXX.......@@    ..    ######",
"  XXXXX.......@@    ..    ######",
"  XX........    oo....  ########",
"  XX........    oo....  ########",
"  ....................  ########",
"  ....................  ########",
"        ..    ..  ..  ##########",
"##  ++OO  OOOO  OO  ############",
"##  ++OO  OOOO  OO  ######  ####",
"##  ++OO  OOOO  OO  ######  ####",
"##  ++++++++..++      ##  XX  ##",
"##  ++++++++..++      ##  XX  ##",
"####      ..++..  @@XX  XX..  ##",
"####      ..++..  @@XX  XX..  ##",
"##  @@..  ++++++  ..@@  ....  ##",
"##  @@..  ..++..  ..@@....  ####",
"##  ..@@  ..++..      ....  ####",
"##  ..@@  ..++..      ....  ####",
"####        ..              ####",
"####        ..              ####",
"##  @@  ..      @@  @@  ########",
"##  @@  ..      @@  @@  ########",
"##          ##          ########"
};
