/* XPM */
static const char *wall[] = {
/* columns rows colors chars-per-pixel */
"32 32 5 1 ",
"  c #352B26",
". c #997D57",
"X c #C3AA83",
"o c #E2CFA4",
"O c None",
/* pixels */
"OOOO                        OOOO",
"OOOO                        OOOO",
"OO  oooooooooo      oooooooo  OO",
"OO  oooooooooo      oooooooo  OO",
"  ooXXXXooooXX..  ooXXooooXX..  ",
"  ooXXXXooooXX..  ooXXooooXX..  ",
"  ooooXXooooXX..  ooXXooooXX..  ",
"  ooooXXooooXX..  ooXXooooXX..  ",
"  ooXXXXXXXXXX..  ooXXXXXXXX..  ",
"  ooXXXXXXXXXX..  ooXXXXXXXX..  ",
"  ooXX....XXXX..    ooXXXX....  ",
"  ooXX....XXXX..    ooXXXX....  ",
"  ooXX....XXXXXX..    ......    ",
"  ooXX....XXXXXX..    ......    ",
"  ooXXXXXXXX..XX..              ",
"  ooXXXXXXXX..XX..              ",
"    ............      oooooo    ",
"    ............      oooooo    ",
"                    ooXXXXXX..  ",
"                    ooXXXXXX..  ",
"    oooooooooo      ooXX......  ",
"    oooooooooo      ooXX......  ",
"  ooXXooooXXXX..    ooXX......  ",
"  ooXXooooXXXX..    ooXX......  ",
"  ooXXooooXX....  ooXXXXXXXX..  ",
"  ooXXooooXX....  ooXXXXXXXX..  ",
"  ooXXXXXXXXXX..  ooXXooXX....  ",
"  ooXXXXXXXXXX..  ooXXooXX....  ",
"OO  ..........      ........  OO",
"OO  ..........      ........  OO",
"OOOO                        OOOO",
"OOOO                        OOOO"
};
