/* XPM */
static const char *wall[] = {
/* columns rows colors chars-per-pixel */
"64 64 5 1 ",
"  c #231C19",
". c #1498DC",
"X c #10D3C3",
"o c #A0FCD8",
"O c None",
/* pixels */
"OOOOOOOO                                                OOOOOOOO",
"OOOOOOOO                                                OOOOOOOO",
"OOOOOOOO                                                OOOOOOOO",
"OOOOOOOO                                                OOOOOOOO",
"OOOO    oooooooooooooooooooooooooooooooooooooooooooooooo    OOOO",
"OOOO    oooooooooooooooooooooooooooooooooooooooooooooooo    OOOO",
"OOOO    oooooooooooooooooooooooooooooooooooooooooooooooo    OOOO",
"OOOO    oooooooooooooooooooooooooooooooooooooooooooooooo    OOOO",
"    ooooooooooooXXXXoooooooooXXXXXXXXXXXXXXXXXXXoooooooooooo    ",
"    ooooooooooooXXXXoooooooooXXXXXXXXXXXXXXXXXXXoooooooooooo    ",
"    ooooooooooooXXXXoooooooooXXXXXXXXXXXXXXXXXXXoooooooooooo    ",
"    ooooooooooooXXXXoooooooooXXXXXXXXXXXXXXXXXXXoooooooooooo    ",
"    ooooooooXXXXXXXXoooooooooXXXXXXXXXXXXXXXXXXXXXXXoooooooo    ",
"    ooooooooXXXXXXXXoooooooooXXXXXXXXXXXXXXXXXXXXXXXoooooooo    ",
"    ooooooooXXXXXXXXoooooooooXXXXXXXXXXXXXXXXXXXXXXXoooooooo    ",
"    ooooooooXXXXXXXXXXXXXXXXXXXXXXXXXXXXXXXXXXXXXXXXoooooooo    ",
"    ooooXXXXXXXXXXXXXXXXXXXXXXXXXXXXXXXXXXXXXXXXXXXXXXXXoooo    ",
"    ooooXXXXXXXXXXXXXXXXXXXXXXXXXXXXXXXooooooooXXXXXXXXXoooo    ",
"    ooooXXXXXXXXXXXXXXXXXXXXXXXXXXXXXXXooooooooXXXXXXXXXoooo    ",
"    ooooXXXXXXXXXXXXXXXXXXXXXXXXXXXXXXXooooooooXXXXXXXXXoooo    ",
"    ooooXXXXXXXXXXXXXXXXXXXXXXXXXXXXXXXooooooooXXXXXXXXXoooo    ",
"    ooooXXXXXXXXXXXXXXXXXXXXXXXXXXXooooXXXXXXXXXXXXXXXXXoooo    ",
"    ooooXXXXXXXXXXXXXXXXXXXXXXXXXXXooooXXXXXXXXXXXXXXXXXoooo    ",
"    ooooXXXXXXXooooooooXXXXXXXXXXXXooooXXXXXXXXXXXXXXXXXoooo    ",
"    ooooXXXXXXXooooooooXXXXXXXXXXXXooooXXXXXXXXXXXXXXXXXoooo    ",
"    ooooXXXXXXXooooooooXXXXXXXXXXXXXXXXXXXoooXXXXXXXXXXXoooo    ",
"    ooooXXXXXXXooooooooXXXXXXXXXXXXXXXXXXXoooXXXXXXXXXXXoooo    ",
"    ooooXXXooooXXXXXXXXooooooooXXXXXXXXXXXoooXXXXXXXXXXXoooo    ",
"    ooooXXXooooXXXXXXXXooooooooXXXXXXXXXXXXXXXXXXXXXXXXXoooo    ",
"    ooooXXXooooXXXXXXXXooooooooXXXXXXXXXXXXXXXoooXXXXXXXoooo    ",
"    ooooXXXooooXXXXXXXXooooooooXXXXXXXooooXXXXoooXXXXXXXoooo    ",
"    ooooXXXXXXXXXXXXXXXXXXXXXXXXXXXXXXooooXXXXoooXXXXXXXoooo    ",
"    ....XXXXXXXXXXXXXXXXXXXXXXXXXXXXXXooooXXXXXXXXXXXXXX....    ",
"    ....XXXXXXXXXXXXXXXXXXXXXXXXXXXXXXooooXXXXXXXXXXXXXX....    ",
"    ....XXXXXXXXXXXXXXXXXXXXXXXXXXXXXXXXXXXXXXXXXXXXXXXX....    ",
"    ....XXXXXXXXX....XXXXXXXXXXXXXXXXXXXXXXXXXXXXXXXXXXX....    ",
"    ....XXXXXXXXX....XXXXXXXXXXXXXXXXXXXXXXXXXXX....XXXX....    ",
"    ....XXXXXXXXX....XXXXXXXXXXXXXXXXXXXXXXXXXXX....XXXX....    ",
"    ....XXXXXXXXX....XXXXXXXXXXXXXXXXXXXXXXXXXXX....XXXX....    ",
"    ....XXXXXXXXXXXXXXXXXXXXXXXXXXXXXXXXXXXXXXXX....XXXX....    ",
"    ....XX....XXXXXXXXXXXXXXXXXXXXXXXXXXXXXXXXXXXXXX........    ",
"    ....XX....XXXXXXXXXXXXX........XXXXXXXXXXXXXXXXX........    ",
"    ....XX....XXXXXXXXXXXXX........XXXXXXXXXXXXXXXXX........    ",
"    ....XX....XXXXXXXXXXXXX........XXXXXXXXXXXXXXXXX........    ",
"    ....XXXXXXXXXXXXXXXXXXX........XXXXXXXXXXXXXXXXXXXXX....    ",
"    ....XXXXXXXXXXXXXXXXXXXXXXXXXXX....XXXXXXXXXXXXXXXXX....    ",
"    ....XXXXXXXXXXXXXXXXXXXXXXXXXXX....XXXXXXXXXXXXXXXXX....    ",
"    ....XXXXXXXXXXXXXXXXXXXXXXXXXXX....XXXXXXXXXXXXXXXXX....    ",
"    ....XXXXXXXX........XXXXXXXXXXX....XXXXXXXXXXXXXXXXX....    ",
"    ....XXXXXXXX........XXXXXXXXXXXXXXXXXXXXXXXXXXXXXXXX....    ",
"    ....XXXXXXXX........XXXXXXXXXXXXXXXXXXXXXXXXXXXXXXXX....    ",
"    ....XXXXXXXX........XXXXXXXXXXXXXXXXXXXXXXXXXXXXXXXX....    ",
"    ....XXXXXXXX........XXXXXXXXXXXXXXXXXXXXXXXXXXXXXXXX....    ",
"    ....XXXXXXXX........XXXXXXXXXXXXXXXXXXXXXXXXXXXXXXXX....    ",
"    ....XXXXXXXX........XXXXXXXXXXXXXXXXXXXXXXXXXXXXXXXX....    ",
"    ....XXXXXXXX........XXXXXXXXXXXXXXXXXXXXXXXXXXXXXXXX....    ",
"OOOO    ................................................    OOOO",
"OOOO    ................................................    OOOO",
"OOOO    ................................................    OOOO",
"OOOO    ................................................    OOOO",
"OOOOOOOO                                                OOOOOOOO",
"OOOOOOOO                                                OOOOOOOO",
"OOOOOOOO                                                OOOOOOOO",
"OOOOOOOO                                                OOOOOOOO"
};
