/* XPM */
static const char *wall[] = {
/* columns rows colors chars-per-pixel */
"64 64 5 1 ",
"  c #231C19",
". c #67332D",
"X c #B66B3A",
"o c #D89E58",
"O c None",
/* pixels */
"OOOOOOOO                                                OOOOOOOO",
"OOOOOOOO                                                OOOOOOOO",
"OOOOOOOO                                                OOOOOOOO",
"OOOOOOOO                                                OOOOOOOO",
"OOOO    oooooooooooooooooooo            oooooooooooooooo    OOOO",
"OOOO    oooooooooooooooooooo            oooooooooooooooo    OOOO",
"OOOO    oooooooooooooooooooo            oooooooooooooooo    OOOO",
"OOOO    oooooooooooooooooooo            oooooooooooooooo    OOOO",
"    ooooXXXXXXXXooooooooXXXXoooo    ooooXXXXooooooooXXXXoooo    ",
"    ooooXXXXXXXXooooooooXXXXoooo    ooooXXXXooooooooXXXXoooo    ",
"    ooooXXXXXXXXooooooooXXXXoooo    ooooXXXXooooooooXXXXoooo    ",
"    ooooXXXXXXXXooooooooXXXXoooo    ooooXXXXooooooooXXXXoooo    ",
"    ooooooooXXXXooooooooXXXX....    ooooXXXXooooooooXXXX....    ",
"    ooooooooXXXXooooooooXXXX....    ooooXXXXooooooooXXXX....    ",
"    ooooooooXXXXooooooooXXXX....    ooooXXXXooooooooXXXX....    ",
"    ooooooooXXXXooooooooXXXX....    ooooXXXXooooooooXXXX....    ",
"    ooooXXXXXXXXXXXXXXXXXXXX....    ooooXXXXXXXXXXXXXXXX....    ",
"    ooooXXXXXXXXXXXXXXXXXXXX....    ooooXXXXXXXXXXXXXXXX....    ",
"    ooooXXXXXXXXXXXXXXXXXXXX....    ooooXXXXXXXXXXXXXXXX....    ",
"    ooooXXXXXXXXXXXXXXXXXXXX....    ooooXXXXXXXXXXXXXXXX....    ",
"    ooooXXXX........XXXXXXXX....        ooooXXXXXXXX........    ",
"    ooooXXXX........XXXXXXXX....        ooooXXXXXXXX........    ",
"    ooooXXXX........XXXXXXXX....        ooooXXXXXXXX........    ",
"    ooooXXXX........XXXXXXXX....        ooooXXXXXXXX........    ",
"    ooooXXXX........XXXXXXXXXXXX....        ............        ",
"    ooooXXXX........XXXXXXXXXXXX....        ............        ",
"    ooooXXXX........XXXXXXXXXXXX....        ............        ",
"    ooooXXXX........XXXXXXXXXXXX....        ............        ",
"    ooooXXXXXXXXXXXXXXXX....XXXX....                            ",
"    ooooXXXXXXXXXXXXXXXX....XXXX....                            ",
"    ooooXXXXXXXXXXXXXXXX....XXXX....                            ",
"    ooooXXXXXXXXXXXXXXXX....XXXX....                            ",
"        ........................            oooooooooooo        ",
"        ........................            oooooooooooo        ",
"        ........................            oooooooooooo        ",
"        ........................            oooooooooooo        ",
"                                        ooooXXXXXXXXXXXXoooo    ",
"                                        ooooXXXXXXXXXXXXoooo    ",
"                                        ooooXXXXXXXXXXXXoooo    ",
"                                        ooooXXXXXXXXXXXXoooo    ",
"        oooooooooooooooooooo            ooooXXXX............    ",
"        oooooooooooooooooooo            ooooXXXX............    ",
"        oooooooooooooooooooo            ooooXXXX............    ",
"        oooooooooooooooooooo            ooooXXXX............    ",
"    ooooXXXXooooooooXXXXXXXXoooo        ooooXXXX............    ",
"    ooooXXXXooooooooXXXXXXXXoooo        ooooXXXX............    ",
"    ooooXXXXooooooooXXXXXXXXoooo        ooooXXXX............    ",
"    ooooXXXXooooooooXXXXXXXXoooo        ooooXXXX............    ",
"    ooooXXXXooooooooXXXX........    ooooXXXXXXXXXXXXXXXX....    ",
"    ooooXXXXooooooooXXXX........    ooooXXXXXXXXXXXXXXXX....    ",
"    ooooXXXXooooooooXXXX........    ooooXXXXXXXXXXXXXXXX....    ",
"    ooooXXXXooooooooXXXX........    ooooXXXXXXXXXXXXXXXX....    ",
"    ooooXXXXXXXXXXXXXXXXXXXX....    ooooXXXXooooXXXX........    ",
"    ooooXXXXXXXXXXXXXXXXXXXX....    ooooXXXXooooXXXX........    ",
"    ooooXXXXXXXXXXXXXXXXXXXX....    ooooXXXXooooXXXX........    ",
"    ooooXXXXXXXXXXXXXXXXXXXX....    ooooXXXXooooXXXX........    ",
"OOOO    ....................            ................    OOOO",
"OOOO    ....................            ................    OOOO",
"OOOO    ....................            ................    OOOO",
"OOOO    ....................            ................    OOOO",
"OOOOOOOO                                                OOOOOOOO",
"OOOOOOOO                                                OOOOOOOO",
"OOOOOOOO                                                OOOOOOOO",
"OOOOOOOO                                                OOOOOOOO"
};
